<svg xmlns="http://www.w3.org/2000/svg" xmlns:xlink="http://www.w3.org/1999/xlink" width="500" zoomAndPan="magnify" viewBox="0 0 375 374.999991" height="500" preserveAspectRatio="xMidYMid meet" version="1.0"><defs><g/><clipPath id="id1"><path d="M 91.828125 91.828125 L 283.078125 91.828125 L 283.078125 283.078125 L 91.828125 283.078125 Z M 91.828125 91.828125 " clip-rule="nonzero"/></clipPath></defs><rect x="-37.5" width="450" fill="rgb(100%, 100%, 100%)" y="-37.499999" height="449.999989" fill-opacity="1"/><rect x="-37.5" width="450" fill="rgb(0%, 0%, 0%)" y="-37.499999" height="449.999989" fill-opacity="1"/><rect x="-37.5" width="450" fill="rgb(100%, 100%, 100%)" y="-37.499999" height="449.999989" fill-opacity="1"/><rect x="-37.5" width="450" fill="rgb(0%, 0%, 0%)" y="-37.499999" height="449.999989" fill-opacity="1"/><g clip-path="url(#id1)"><path fill="rgb(92.549133%, 92.158508%, 89.408875%)" d="M 187.453125 283.078125 C 134.726562 283.078125 91.828125 240.179688 91.828125 187.453125 C 91.828125 134.726562 134.726562 91.828125 187.453125 91.828125 C 240.179688 91.828125 283.078125 134.726562 283.078125 187.453125 C 283.078125 240.179688 240.179688 283.078125 187.453125 283.078125 Z M 187.453125 93.523438 C 135.660156 93.523438 93.523438 135.660156 93.523438 187.453125 C 93.523438 239.246094 135.660156 281.382812 187.453125 281.382812 C 239.246094 281.382812 281.382812 239.246094 281.382812 187.453125 C 281.382812 135.660156 239.246094 93.523438 187.453125 93.523438 Z M 187.453125 93.523438 " fill-opacity="1" fill-rule="nonzero"/></g><g fill="rgb(92.549133%, 92.158508%, 89.408875%)" fill-opacity="1"><g transform="translate(130.733448, 212.117945)"><g><path d="M 13.734375 0.484375 C 11.378906 0.484375 9.238281 0.0234375 7.3125 -0.890625 C 5.394531 -1.816406 3.882812 -3.171875 2.78125 -4.953125 C 1.6875 -6.734375 1.140625 -8.882812 1.140625 -11.40625 L 1.140625 -24.296875 L 11.28125 -24.296875 L 11.28125 -12 C 11.28125 -11.082031 11.46875 -10.351562 11.84375 -9.8125 C 12.226562 -9.269531 12.820312 -9 13.625 -9 C 14.382812 -9 14.953125 -9.25 15.328125 -9.75 C 15.710938 -10.25 15.90625 -10.957031 15.90625 -11.875 L 15.90625 -51.546875 L 26.28125 -51.546875 L 26.28125 -12.90625 C 26.28125 -10.21875 25.75 -7.863281 24.6875 -5.84375 C 23.625 -3.820312 22.144531 -2.257812 20.25 -1.15625 C 18.351562 -0.0625 16.179688 0.484375 13.734375 0.484375 Z M 13.734375 0.484375 "/></g></g></g><g fill="rgb(92.549133%, 92.158508%, 89.408875%)" fill-opacity="1"><g transform="translate(158.693422, 212.117945)"><g><path d="M 0.90625 0 L 5.875 -51.546875 L 23.34375 -51.546875 L 28.265625 0 L 18.484375 0 L 17.765625 -8.34375 L 11.515625 -8.34375 L 10.921875 0 Z M 12.296875 -16.5625 L 16.984375 -16.5625 L 14.703125 -42.78125 L 14.21875 -42.78125 Z M 12.296875 -16.5625 "/></g></g></g><g fill="rgb(92.549133%, 92.158508%, 89.408875%)" fill-opacity="1"><g transform="translate(187.793388, 212.117945)"><g><path d="M 7.015625 0 L 0.65625 -51.59375 L 10.5 -51.59375 L 14.28125 -16.5 L 17.640625 -51.59375 L 27.484375 -51.59375 L 21.125 0 Z M 7.015625 0 "/></g></g></g><g fill="rgb(92.549133%, 92.158508%, 89.408875%)" fill-opacity="1"><g transform="translate(215.933355, 212.117945)"><g><path d="M 2.28125 -51.546875 L 15.90625 -51.546875 C 20.019531 -51.546875 22.957031 -50.210938 24.71875 -47.546875 C 26.476562 -44.890625 27.359375 -41 27.359375 -35.875 C 27.359375 -30.757812 26.578125 -26.898438 25.015625 -24.296875 C 23.460938 -21.703125 20.664062 -20.40625 16.625 -20.40625 L 12.421875 -20.40625 L 12.421875 0 L 2.28125 0 Z M 13.015625 -29.703125 C 14.253906 -29.703125 15.164062 -29.929688 15.75 -30.390625 C 16.332031 -30.847656 16.710938 -31.503906 16.890625 -32.359375 C 17.066406 -33.222656 17.15625 -34.457031 17.15625 -36.0625 C 17.15625 -38.21875 16.914062 -39.773438 16.4375 -40.734375 C 15.957031 -41.703125 15 -42.1875 13.5625 -42.1875 L 12.421875 -42.1875 L 12.421875 -29.703125 Z M 13.015625 -29.703125 "/></g></g></g></svg>